{
  "accessors": [
    {
      "bufferView": 2,
      "componentType": 5126,
      "count": 2876,
      "max": [
        31.447425842285156,
        25.746419906616211,
        2.1136837005615234
      ],
      "min": [
        -174.34805297851562,
        -36.709201812744141,
        -20.888809204101562
      ],
      "type": "VEC3"
    },
    {
      "bufferView": 2,
      "byteOffset": 34512,
      "componentType": 5126,
      "count": 2876,
      "max": [
        1,
        0.99989223480224609,
        1
      ],
      "min": [
        -1,
        -0.99989223480224609,
        -1
      ],
      "type": "VEC3"
    },
    {
      "bufferView": 1,
      "componentType": 5126,
      "count": 2876,
      "max": [
        0.875,
        1
      ],
      "min": [
        0,
        0
      ],
      "type": "VEC2"
    },
    {
      "bufferView": 0,
      "componentType": 5125,
      "count": 4716,
      "max": [
        2875
      ],
      "min": [
        0
      ],
      "type": "SCALAR"
    },
    {
      "bufferView": 2,
      "byteOffset": 69024,
      "componentType": 5126,
      "count": 946,
      "max": [
        19.703653335571289,
        23.883378982543945,
        25.190406799316406
      ],
      "min": [
        -162.6043701171875,
        -37.572677612304688,
        -16.950344085693359
      ],
      "type": "VEC3"
    },
    {
      "bufferView": 2,
      "byteOffset": 80376,
      "componentType": 5126,
      "count": 946,
      "max": [
        1,
        0.99996697902679443,
        1
      ],
      "min": [
        -1,
        -0.99933540821075439,
        -1
      ],
      "type": "VEC3"
    },
    {
      "bufferView": 1,
      "byteOffset": 23008,
      "componentType": 5126,
      "count": 946,
      "max": [
        0.875,
        1
      ],
      "min": [
        0.125,
        0
      ],
      "type": "VEC2"
    },
    {
      "bufferView": 0,
      "byteOffset": 18864,
      "componentType": 5125,
      "count": 1440,
      "max": [
        945
      ],
      "min": [
        0
      ],
      "type": "SCALAR"
    },
    {
      "bufferView": 2,
      "byteOffset": 91728,
      "componentType": 5126,
      "count": 32,
      "max": [
        -4.417022705078125,
        12.000678062438965,
        23.215473175048828
      ],
      "min": [
        -138.48367309570312,
        -16.120975494384766,
        5.8425464630126953
      ],
      "type": "VEC3"
    },
    {
      "bufferView": 2,
      "byteOffset": 92112,
      "componentType": 5126,
      "count": 32,
      "max": [
        0.55787479877471924,
        0.98563969135284424,
        0.8299252986907959
      ],
      "min": [
        -0.55787473917007446,
        -0.87798142433166504,
        0.16462111473083496
      ],
      "type": "VEC3"
    },
    {
      "bufferView": 1,
      "byteOffset": 30576,
      "componentType": 5126,
      "count": 32,
      "max": [
        0.8676992654800415,
        0.66666662693023682
      ],
      "min": [
        0.62499982118606567,
        0.0860305055975914
      ],
      "type": "VEC2"
    },
    {
      "bufferView": 0,
      "byteOffset": 24624,
      "componentType": 5125,
      "count": 48,
      "max": [
        31
      ],
      "min": [
        0
      ],
      "type": "SCALAR"
    },
    {
      "bufferView": 2,
      "byteOffset": 92496,
      "componentType": 5126,
      "count": 140,
      "max": [
        -9.7371253967285156,
        26.696126937866211,
        -0.76356983184814453
      ],
      "min": [
        -133.16357421875,
        -34.133567810058594,
        -16.389492034912109
      ],
      "type": "VEC3"
    },
    {
      "bufferView": 2,
      "byteOffset": 94176,
      "componentType": 5126,
      "count": 140,
      "max": [
        0.91925138235092163,
        1,
        1
      ],
      "min": [
        -0.91925221681594849,
        -0.98023694753646851,
        -0.99853062629699707
      ],
      "type": "VEC3"
    },
    {
      "bufferView": 1,
      "byteOffset": 30832,
      "componentType": 5126,
      "count": 140,
      "max": [
        0.90729027986526489,
        0.98361372947692871
      ],
      "min": [
        0.48135083913803101,
        0.09270961582660675
      ],
      "type": "VEC2"
    },
    {
      "bufferView": 0,
      "byteOffset": 24816,
      "componentType": 5125,
      "count": 234,
      "max": [
        139
      ],
      "min": [
        0
      ],
      "type": "SCALAR"
    },
    {
      "bufferView": 2,
      "byteOffset": 95856,
      "componentType": 5126,
      "count": 354,
      "max": [
        -11.052018165588379,
        26.696126937866211,
        1.6262658834457397
      ],
      "min": [
        -131.84867858886719,
        -36.212203979492188,
        -17.343935012817383
      ],
      "type": "VEC3"
    },
    {
      "bufferView": 2,
      "byteOffset": 100104,
      "componentType": 5126,
      "count": 354,
      "max": [
        1,
        1,
        1
      ],
      "min": [
        -1,
        -1,
        -1
      ],
      "type": "VEC3"
    },
    {
      "bufferView": 1,
      "byteOffset": 31952,
      "componentType": 5126,
      "count": 354,
      "max": [
        1,
        1
      ],
      "min": [
        -1.5646219253540039e-07,
        0
      ],
      "type": "VEC2"
    },
    {
      "bufferView": 0,
      "byteOffset": 25752,
      "componentType": 5125,
      "count": 582,
      "max": [
        353
      ],
      "min": [
        0
      ],
      "type": "SCALAR"
    },
    {
      "bufferView": 2,
      "byteOffset": 104352,
      "componentType": 5126,
      "count": 8,
      "max": [
        -14.232535362243652,
        -35.390426635742188,
        1.2285223007202148
      ],
      "min": [
        -128.66815185546875,
        -35.586151123046875,
        -1.0464608669281006
      ],
      "type": "VEC3"
    },
    {
      "bufferView": 2,
      "byteOffset": 104448,
      "componentType": 5126,
      "count": 8,
      "max": [
        0.0053078294731676579,
        -0.99938684701919556,
        0.034609746187925339
      ],
      "min": [
        -0.0053078280761837959,
        -0.99938690662384033,
        0.034609738737344742
      ],
      "type": "VEC3"
    },
    {
      "bufferView": 1,
      "byteOffset": 34784,
      "componentType": 5126,
      "count": 8,
      "max": [
        0,
        0
      ],
      "min": [
        0,
        0
      ],
      "type": "VEC2"
    },
    {
      "bufferView": 0,
      "byteOffset": 28080,
      "componentType": 5125,
      "count": 12,
      "max": [
        7
      ],
      "min": [
        0
      ],
      "type": "SCALAR"
    },
    {
      "bufferView": 2,
      "byteOffset": 104544,
      "componentType": 5126,
      "count": 8,
      "max": [
        -14.232532501220703,
        22.444610595703125,
        1.2123596668243408
      ],
      "min": [
        -128.66815185546875,
        22.248882293701172,
        -1.0626256465911865
      ],
      "type": "VEC3"
    },
    {
      "bufferView": 2,
      "byteOffset": 104640,
      "componentType": 5126,
      "count": 8,
      "max": [
        0.0053079314529895782,
        0.99938690662384033,
        -0.034609746187925339
      ],
      "min": [
        -0.0053079337812960148,
        0.99938690662384033,
        -0.034609749913215637
      ],
      "type": "VEC3"
    },
    {
      "bufferView": 1,
      "byteOffset": 34848,
      "componentType": 5126,
      "count": 8,
      "max": [
        0,
        0
      ],
      "min": [
        0,
        0
      ],
      "type": "VEC2"
    },
    {
      "bufferView": 0,
      "byteOffset": 28128,
      "componentType": 5125,
      "count": 12,
      "max": [
        7
      ],
      "min": [
        0
      ],
      "type": "SCALAR"
    },
    {
      "bufferView": 2,
      "byteOffset": 104736,
      "componentType": 5126,
      "count": 448,
      "max": [
        19.483243942260742,
        17.982425689697266,
        4.600214958190918
      ],
      "min": [
        -162.3839111328125,
        -30.165294647216797,
        -9.1981029510498047
      ],
      "type": "VEC3"
    },
    {
      "bufferView": 2,
      "byteOffset": 110112,
      "componentType": 5126,
      "count": 448,
      "max": [
        1,
        0.97523713111877441,
        0.99866598844528198
      ],
      "min": [
        -1,
        -0.97208094596862793,
        -0.89115321636199951
      ],
      "type": "VEC3"
    },
    {
      "bufferView": 1,
      "byteOffset": 34912,
      "componentType": 5126,
      "count": 448,
      "max": [
        0,
        0
      ],
      "min": [
        0,
        0
      ],
      "type": "VEC2"
    },
    {
      "bufferView": 0,
      "byteOffset": 28176,
      "componentType": 5125,
      "count": 672,
      "max": [
        447
      ],
      "min": [
        0
      ],
      "type": "SCALAR"
    },
    {
      "bufferView": 2,
      "byteOffset": 115488,
      "componentType": 5126,
      "count": 1588,
      "max": [
        28.575279235839844,
        15.14971923828125,
        -1.3071651458740234
      ],
      "min": [
        -171.47589111328125,
        -27.498973846435547,
        -23.201736450195312
      ],
      "type": "VEC3"
    },
    {
      "bufferView": 2,
      "byteOffset": 134544,
      "componentType": 5126,
      "count": 1588,
      "max": [
        1,
        0.99683898687362671,
        0.95386838912963867
      ],
      "min": [
        -1,
        -0.99683910608291626,
        -0.95386815071105957
      ],
      "type": "VEC3"
    },
    {
      "bufferView": 1,
      "byteOffset": 38496,
      "componentType": 5126,
      "count": 1588,
      "max": [
        1,
        1
      ],
      "min": [
        -1.5646219253540039e-07,
        0.01000000536441803
      ],
      "type": "VEC2"
    },
    {
      "bufferView": 0,
      "byteOffset": 30864,
      "componentType": 5125,
      "count": 2400,
      "max": [
        1587
      ],
      "min": [
        0
      ],
      "type": "SCALAR"
    },
    {
      "bufferView": 2,
      "byteOffset": 153600,
      "componentType": 5126,
      "count": 32,
      "max": [
        17.247688293457031,
        -12.354535102844238,
        10.813705444335938
      ],
      "min": [
        -160.14839172363281,
        -13.439475059509277,
        5.9819812774658203
      ],
      "type": "VEC3"
    },
    {
      "bufferView": 2,
      "byteOffset": 153984,
      "componentType": 5126,
      "count": 32,
      "max": [
        0.06042465940117836,
        0.99733185768127441,
        0.040967833250761032
      ],
      "min": [
        -0.060424566268920898,
        0.99733173847198486,
        0.040965177118778229
      ],
      "type": "VEC3"
    },
    {
      "bufferView": 1,
      "byteOffset": 51200,
      "componentType": 5126,
      "count": 32,
      "max": [
        0.625,
        1
      ],
      "min": [
        0.625,
        0.8011777400970459
      ],
      "type": "VEC2"
    },
    {
      "bufferView": 0,
      "byteOffset": 40464,
      "componentType": 5125,
      "count": 48,
      "max": [
        31
      ],
      "min": [
        0
      ],
      "type": "SCALAR"
    }
  ],
  "asset": {
    "extras": {
      "author": "necifes (https://sketchfab.com/necifes)",
      "license": "CC-BY-4.0 (http://creativecommons.org/licenses/by/4.0/)",
      "source": "https://sketchfab.com/3d-models/low-poly-car-c1bc5553672547e1900e9dd501102b90",
      "title": "Low poly car"
    },
    "generator": "Sketchfab-8.47.0",
    "version": "2.0"
  },
  "bufferViews": [
    {
      "buffer": 0,
      "byteLength": 40656,
      "byteOffset": 0,
      "name": "floatBufferViews",
      "target": 34963
    },
    {
      "buffer": 0,
      "byteLength": 51456,
      "byteOffset": 40656,
      "byteStride": 8,
      "name": "floatBufferViews",
      "target": 34962
    },
    {
      "buffer": 0,
      "byteLength": 154368,
      "byteOffset": 92112,
      "byteStride": 12,
      "name": "floatBufferViews",
      "target": 34962
    }
  ],
  "buffers": [
    {
      "byteLength": 246480,
      "uri": "scene.bin"
    }
  ],
  "materials": [
    {
      "doubleSided": true,
      "emissiveFactor": [
        0,
        0,
        0
      ],
      "name": "Material.001",
      "pbrMetallicRoughness": {
        "baseColorFactor": [
          0.51733399999999996,
          0.51733399999999996,
          0.51733399999999996,
          1
        ],
        "metallicFactor": 1,
        "roughnessFactor": 0.12331351196882087
      }
    },
    {
      "doubleSided": true,
      "emissiveFactor": [
        0,
        0,
        0
      ],
      "name": "Carooserie",
      "pbrMetallicRoughness": {
        "baseColorFactor": [
          0.16794900000000001,
          0.0049038199999999997,
          0.12904399999999991,
          1
        ],
        "metallicFactor": 1,
        "roughnessFactor": 0.59148684554536113
      }
    },
    {
      "doubleSided": true,
      "emissiveFactor": [
        0,
        0,
        0
      ],
      "name": "Glass",
      "pbrMetallicRoughness": {
        "baseColorFactor": [
          0.030027399999999999,
          0.030027399999999999,
          0.030027399999999999,
          1
        ],
        "metallicFactor": 0,
        "roughnessFactor": 0.0087544162463638869
      }
    },
    {
      "doubleSided": true,
      "emissiveFactor": [
        0,
        0,
        0
      ],
      "name": "Material",
      "pbrMetallicRoughness": {
        "baseColorFactor": [
          0.0056046799999999999,
          0.0056046799999999999,
          0.0056046799999999999,
          1
        ],
        "metallicFactor": 0,
        "roughnessFactor": 0.99874675545278668
      }
    },
    {
      "doubleSided": true,
      "emissiveFactor": [
        0,
        0,
        0
      ],
      "name": "Material.004",
      "pbrMetallicRoughness": {
        "baseColorFactor": [
          0.252944,
          0.252944,
          0.252944,
          1
        ],
        "metallicFactor": 0,
        "roughnessFactor": 0.94297060426501467
      }
    },
    {
      "doubleSided": true,
      "emissiveFactor": [
        1,
        1,
        1
      ],
      "name": "Material.005",
      "pbrMetallicRoughness": {
        "baseColorFactor": [
          0.80000000000000004,
          0.80000000000000004,
          0.80000000000000004,
          1
        ],
        "metallicFactor": 0,
        "roughnessFactor": 0.80404082057734572
      }
    },
    {
      "doubleSided": true,
      "emissiveFactor": [
        1,
        0,
        0
      ],
      "name": "Material.006",
      "pbrMetallicRoughness": {
        "baseColorFactor": [
          1,
          0,
          0,
          1
        ],
        "metallicFactor": 0,
        "roughnessFactor": 0.80404082057734572
      }
    },
    {
      "doubleSided": true,
      "emissiveFactor": [
        0,
        0,
        0
      ],
      "name": "Carooserie.001",
      "pbrMetallicRoughness": {
        "baseColorFactor": [
          0.054968799999999998,
          0.054968799999999998,
          0.054968799999999998,
          1
        ],
        "metallicFactor": 1,
        "roughnessFactor": 0.98653544882268995
      }
    },
    {
      "doubleSided": true,
      "emissiveFactor": [
        0,
        0,
        0
      ],
      "name": "Material.002",
      "pbrMetallicRoughness": {
        "baseColorFactor": [
          0,
          0,
          0,
          1
        ],
        "metallicFactor": 0,
        "roughnessFactor": 1
      }
    },
    {
      "doubleSided": true,
      "emissiveFactor": [
        0,
        0,
        0
      ],
      "name": "Glass.001",
      "pbrMetallicRoughness": {
        "baseColorFactor": [
          1,
          1,
          1,
          1
        ],
        "metallicFactor": 1,
        "roughnessFactor": 0
      }
    }
  ],
  "meshes": [
    {
      "name": "LowPoly_car_Material.001_0",
      "primitives": [
        {
          "attributes": {
            "NORMAL": 1,
            "POSITION": 0,
            "TEXCOORD_0": 2
          },
          "indices": 3,
          "material": 0,
          "mode": 4
        }
      ]
    },
    {
      "name": "LowPoly_car_Carooserie_0",
      "primitives": [
        {
          "attributes": {
            "NORMAL": 5,
            "POSITION": 4,
            "TEXCOORD_0": 6
          },
          "indices": 7,
          "material": 1,
          "mode": 4
        }
      ]
    },
    {
      "name": "LowPoly_car_Glass_0",
      "primitives": [
        {
          "attributes": {
            "NORMAL": 9,
            "POSITION": 8,
            "TEXCOORD_0": 10
          },
          "indices": 11,
          "material": 2,
          "mode": 4
        }
      ]
    },
    {
      "name": "LowPoly_car_Material_0",
      "primitives": [
        {
          "attributes": {
            "NORMAL": 13,
            "POSITION": 12,
            "TEXCOORD_0": 14
          },
          "indices": 15,
          "material": 3,
          "mode": 4
        }
      ]
    },
    {
      "name": "LowPoly_car_Material.004_0",
      "primitives": [
        {
          "attributes": {
            "NORMAL": 17,
            "POSITION": 16,
            "TEXCOORD_0": 18
          },
          "indices": 19,
          "material": 4,
          "mode": 4
        }
      ]
    },
    {
      "name": "LowPoly_car_Material.005_0",
      "primitives": [
        {
          "attributes": {
            "NORMAL": 21,
            "POSITION": 20,
            "TEXCOORD_0": 22
          },
          "indices": 23,
          "material": 5,
          "mode": 4
        }
      ]
    },
    {
      "name": "LowPoly_car_Material.006_0",
      "primitives": [
        {
          "attributes": {
            "NORMAL": 25,
            "POSITION": 24,
            "TEXCOORD_0": 26
          },
          "indices": 27,
          "material": 6,
          "mode": 4
        }
      ]
    },
    {
      "name": "LowPoly_car_Carooserie.001_0",
      "primitives": [
        {
          "attributes": {
            "NORMAL": 29,
            "POSITION": 28,
            "TEXCOORD_0": 30
          },
          "indices": 31,
          "material": 7,
          "mode": 4
        }
      ]
    },
    {
      "name": "LowPoly_car_Material.002_0",
      "primitives": [
        {
          "attributes": {
            "NORMAL": 33,
            "POSITION": 32,
            "TEXCOORD_0": 34
          },
          "indices": 35,
          "material": 8,
          "mode": 4
        }
      ]
    },
    {
      "name": "LowPoly_car_Glass.001_0",
      "primitives": [
        {
          "attributes": {
            "NORMAL": 37,
            "POSITION": 36,
            "TEXCOORD_0": 38
          },
          "indices": 39,
          "material": 9,
          "mode": 4
        }
      ]
    }
  ],
  "nodes": [
    {
      "children": [
        1
      ],
      "name": "RootNode (gltf orientation matrix)",
      "rotation": [
        -0.70710678118654746,
        -0,
        -0,
        0.70710678118654757
      ]
    },
    {
      "children": [
        2
      ],
      "matrix": [
        0.99998676776885986,
        0,
        -0.0051490073092281818,
        0,
        0,
        1,
        0,
        0,
        0.0051490073092281818,
        0,
        0.99998676776885986,
        0,
        -0.85783755779266357,
        1.0105061846843455e-05,
        0.0021780671086162329,
        1
      ],
      "name": "RootNode (model correction matrix)"
    },
    {
      "children": [
        3
      ],
      "matrix": [
        1,
        0,
        0,
        0,
        0,
        0,
        1,
        0,
        0,
        -1,
        0,
        0,
        0,
        0,
        0,
        1
      ],
      "name": "9e8ca9615c9b43d8aae7e7f6bd8c29e2.fbx"
    },
    {
      "children": [
        4
      ],
      "name": "RootNode"
    },
    {
      "children": [
        5,
        6,
        7,
        8,
        9,
        10,
        11,
        12,
        13,
        14
      ],
      "matrix": [
        2.6886262893676758,
        0,
        0,
        0,
        0,
        -2.540338785433406e-06,
        -15.592488288879188,
        0,
        0,
        7.8463187217711363,
        -1.2783275768758166e-06,
        0,
        192.10330200195312,
        158.79948425292969,
        -25.999759674072266,
        1
      ],
      "name": "LowPoly_car"
    },
    {
      "mesh": 0,
      "name": "LowPoly_car_Material.001_0"
    },
    {
      "mesh": 1,
      "name": "LowPoly_car_Carooserie_0"
    },
    {
      "mesh": 2,
      "name": "LowPoly_car_Glass_0"
    },
    {
      "mesh": 3,
      "name": "LowPoly_car_Material_0"
    },
    {
      "mesh": 4,
      "name": "LowPoly_car_Material.004_0"
    },
    {
      "mesh": 5,
      "name": "LowPoly_car_Material.005_0"
    },
    {
      "mesh": 6,
      "name": "LowPoly_car_Material.006_0"
    },
    {
      "mesh": 7,
      "name": "LowPoly_car_Carooserie.001_0"
    },
    {
      "mesh": 8,
      "name": "LowPoly_car_Material.002_0"
    },
    {
      "mesh": 9,
      "name": "LowPoly_car_Glass.001_0"
    }
  ],
  "scene": 0,
  "scenes": [
    {
      "name": "OSG_Scene",
      "nodes": [
        0
      ]
    }
  ]
}

